# xmcd CD database file
#
# Track frame offsets:
#	150
#	14265
#	41435
#	56797
#	70462
#	85191
#	99453
#	114084
#	131692
#	146719
#	160361
#	173573
#	223682
#	277909
#
# Disc length: 4424 seconds
#
# Revision: 0
# Processed by: cddbd v1.5PL3 Copyright (c) Steve Scherf et al.
# Submitted via: CDex 1.51
#
DISCID=c211460e
DTITLE=OSCAR PETERSON - SOPHISTICATED LADY
DYEAR=2003
DGENRE=Jazz
TTITLE0=BE MY GUEST
TTITLE1=EXTENDED BLUES
TTITLE2=JOHN HARDY'S WIFE
TTITLE3=SOPHISTICATED LADY
TTITLE4=THINGS AIN'T WHAT THEY USE TO BE
TTITLE5=IN A MELLOTONE
TTITLE6=I GOT IT BAD (AND THAT AIN'T GOOD)
TTITLE7=COTTON TAIL
TTITLE8=TAKE THA "A" TRAIN
TTITLE9=ROCKIN' IN RHYTHM
TTITLE10=DO NOTHIN' TILL YOU HEAR FROM ME
TTITLE11=STOMPIN' AT THE SAVOY
TTITLE12=BODY AND SOUL
TTITLE13=THE ASTAIRE BLUES
EXTD=YEAR: 2003
EXTT0=
EXTT1=
EXTT2=
EXTT3=
EXTT4=
EXTT5=
EXTT6=
EXTT7=
EXTT8=
EXTT9=
EXTT10=
EXTT11=
EXTT12=
EXTT13=
PLAYORDER=
